<svg id="Layer_1" enable-background="new 0 0 512 512" height="512" viewBox="0 0 512 512" width="512" xmlns="http://www.w3.org/2000/svg"><g><path d="m256 238.867c-25.989 0-47.133-21.144-47.133-47.133v-32.134c0-8.284 6.716-15 15-15h64.267c8.284 0 15 6.716 15 15v32.133c0 25.99-21.145 47.134-47.134 47.134z" fill="#005b62"/><path d="m303.134 191.733v-32.133c0-8.284-6.716-15-15-15h-32.134v94.267c25.989 0 47.134-21.144 47.134-47.134z" fill="#00191a"/><g fill="#ffcb00"><path d="m132.926 41.673c5.859 5.859 15.356 5.856 21.213 0 5.858-5.858 5.858-15.355 0-21.213l-16.065-16.066c-5.857-5.857-15.355-5.858-21.213 0s-5.858 15.355 0 21.213z"/><path d="m132.926 132.927-16.066 16.067c-5.857 5.858-5.857 15.355 0 21.213 5.86 5.859 15.357 5.856 21.213 0l16.066-16.067c5.857-5.858 5.857-15.355 0-21.213-5.858-5.858-15.354-5.859-21.213 0z"/><path d="m135.241 87.3c0-8.284-6.716-15-15-15h-22.722c-8.284 0-15 6.716-15 15s6.716 15 15 15h22.722c8.284 0 15-6.716 15-15z"/></g><g fill="#ffa07a"><path d="m379.073 41.673c-5.859 5.859-15.356 5.856-21.213 0-5.858-5.858-5.858-15.355 0-21.213l16.066-16.067c5.857-5.857 15.355-5.858 21.213 0s5.858 15.355 0 21.213z"/><path d="m379.073 132.927 16.066 16.067c5.857 5.858 5.857 15.355 0 21.213-5.86 5.859-15.357 5.856-21.213 0l-16.066-16.067c-5.857-5.858-5.857-15.355 0-21.213 5.858-5.858 15.355-5.859 21.213 0z"/><path d="m376.759 87.3c0-8.284 6.716-15 15-15h22.722c8.284 0 15 6.716 15 15s-6.716 15-15 15h-22.722c-8.284 0-15-6.716-15-15z"/></g><g><g><ellipse cx="95.333" cy="328.833" fill="#f5a582" rx="55.7" ry="55.7" transform="matrix(.707 -.707 .707 .707 -204.598 163.724)"/><path d="m175.667 512h-160.667c-8.284 0-15-6.716-15-15v-17.133c0-52.567 42.767-95.333 95.333-95.333s95.333 42.767 95.333 95.333v17.133c.001 8.284-6.715 15-14.999 15z" fill="#ff5c5c"/><path d="m95.333 273.133c30.713 0 55.7 24.987 55.7 55.7s-24.987 55.7-55.7 55.7z" fill="#e1876e"/><path d="m175.667 512c8.284 0 15-6.716 15-15v-17.133c0-52.567-42.766-95.333-95.333-95.333v127.466z" fill="#ea1c81"/></g><g><ellipse cx="416.667" cy="328.833" fill="#c3551e" rx="55.7" ry="55.7" transform="matrix(.707 -.707 .707 .707 -110.481 390.941)"/><path d="m497 512h-160.667c-8.284 0-15-6.716-15-15v-17.133c0-52.567 42.767-95.333 95.333-95.333s95.334 42.766 95.334 95.333v17.133c0 8.284-6.716 15-15 15z" fill="#ffcb00"/><path d="m416.667 273.133c30.713 0 55.7 24.987 55.7 55.7s-24.987 55.7-55.7 55.7z" fill="#9b3c0f"/><path d="m497 512c8.284 0 15-6.716 15-15v-17.133c0-52.567-42.766-95.333-95.333-95.333v127.466z" fill="#ffa07a"/></g><g><ellipse cx="256" cy="328.833" fill="#ffdcd7" rx="55.7" ry="55.7" transform="matrix(.707 -.707 .707 .707 -157.54 277.332)"/><path d="m336.333 512h-160.666c-8.284 0-15-6.716-15-15v-17.133c0-52.567 42.767-95.333 95.333-95.333s95.333 42.767 95.333 95.333v17.133c0 8.284-6.716 15-15 15z" fill="#00e4ef"/><path d="m256 273.133c30.713 0 55.7 24.987 55.7 55.7s-24.987 55.7-55.7 55.7z" fill="#ffb9be"/><path d="m336.333 512c8.284 0 15-6.716 15-15v-17.133c0-52.567-42.766-95.333-95.333-95.333v127.466z" fill="#5ecbf1"/></g></g><path d="m303.134 159.6c0-9.577 3.74-18.702 10.282-25.703 14.091-14.798 21.851-34.196 21.851-54.63 0-43.708-35.559-79.267-79.267-79.267s-79.267 35.559-79.267 79.267c0 20.434 7.76 39.833 21.851 54.63 6.542 7.001 10.283 16.126 10.283 25.703z" fill="#ffe705"/><path d="m313.416 133.897c14.091-14.798 21.851-34.196 21.851-54.63 0-43.708-35.559-79.267-79.267-79.267v159.6h47.134c0-9.577 3.74-18.702 10.282-25.703z" fill="#ffcb00"/></g></svg>